<?xml version="1.0" encoding="UTF-8" standalone="no"?>
<svg xmlns:svg="http://www.w3.org/2000/svg"
     xmlns="http://www.w3.org/2000/svg" version="1.1"
     width="360" height="185">
    <!-- Created with the Wikimedia parliament diagram creator (http://parliamentdiagram.toolforge.org/parliamentinputform.html) -->
    <g>
        <text x="175" y="175" 
              style="font-size:36px;font-weight:bold;text-align:center;text-anchor:middle;font-family:sans-serif">
            134
        </text>
        <g style="fill:#FD9DA7; stroke-width:0.00; stroke:#000000" 
           id="0_F"> 
            <title>F</title>            <circle cx="13.47" cy="173.34" r="6.67"/> 
            <circle cx="30.15" cy="173.34" r="6.67"/> 
            <circle cx="46.83" cy="173.34" r="6.67"/> 
            <circle cx="63.52" cy="173.34" r="6.67"/> 
            <circle cx="80.22" cy="173.34" r="6.67"/> 
            <circle cx="96.93" cy="173.35" r="6.67"/> 
            <circle cx="15.19" cy="155.20" r="6.67"/> 
            <circle cx="31.96" cy="155.83" r="6.67"/> 
            <circle cx="48.87" cy="155.84" r="6.67"/> 
            <circle cx="65.86" cy="155.85" r="6.67"/> 
            <circle cx="82.95" cy="155.88" r="6.67"/> 
            <circle cx="18.88" cy="137.37" r="6.67"/> 
            <circle cx="35.81" cy="138.65" r="6.67"/> 
            <circle cx="100.22" cy="155.94" r="6.67"/> 
            <circle cx="53.21" cy="138.76" r="6.67"/> 
            <circle cx="70.81" cy="138.92" r="6.67"/> 
            <circle cx="24.49" cy="120.04" r="6.67"/> 
            <circle cx="41.65" cy="122.05" r="6.67"/> 
            <circle cx="88.71" cy="139.17" r="6.67"/> 
            <circle cx="59.75" cy="122.40" r="6.67"/> 
            <circle cx="31.97" cy="103.43" r="6.67"/> 
            <circle cx="107.10" cy="139.62" r="6.67"/> 
            <circle cx="78.25" cy="122.92" r="6.67"/> 
            <circle cx="49.39" cy="106.24" r="6.67"/> 
            <circle cx="68.40" cy="107.05" r="6.67"/> 
            <circle cx="41.21" cy="87.73" r="6.67"/> 
            <circle cx="97.33" cy="123.74" r="6.67"/> 
            <circle cx="58.93" cy="91.45" r="6.67"/> 
            <circle cx="88.02" cy="108.23" r="6.67"/> 
            <circle cx="52.10" cy="73.13" r="6.67"/> 
            <circle cx="78.99" cy="92.97" r="6.67"/> 
            <circle cx="117.29" cy="125.12" r="6.67"/> 
            <circle cx="70.13" cy="77.87" r="6.67"/> 
            <circle cx="108.52" cy="110.07" r="6.67"/> 
            <circle cx="64.53" cy="59.82" r="6.67"/> 
            <circle cx="99.89" cy="95.18" r="6.67"/> 
            <circle cx="91.35" cy="80.41" r="6.67"/> 
            <circle cx="82.85" cy="65.71" r="6.67"/> 
            <circle cx="78.33" cy="47.93" r="6.67"/> 
            <circle cx="130.30" cy="113.11" r="6.67"/> 
            <circle cx="121.95" cy="98.58" r="6.67"/> 
            <circle cx="113.60" cy="84.07" r="6.67"/> 
            <circle cx="105.25" cy="69.59" r="6.67"/> 
            <circle cx="96.91" cy="55.11" r="6.67"/> 
            <circle cx="93.35" cy="37.63" r="6.67"/> 
        </g>
        <g style="fill:#4F79A9; stroke-width:0.00; stroke:#000000" 
           id="1_M"> 
            <title>M</title>            <circle cx="112.11" cy="46.24" r="6.67"/> 
            <circle cx="120.47" cy="60.70" r="6.67"/> 
            <circle cx="128.82" cy="75.16" r="6.67"/> 
            <circle cx="137.19" cy="89.63" r="6.67"/> 
            <circle cx="109.41" cy="29.02" r="6.67"/> 
            <circle cx="145.57" cy="104.11" r="6.67"/> 
            <circle cx="128.25" cy="39.21" r="6.67"/> 
            <circle cx="136.72" cy="53.89" r="6.67"/> 
            <circle cx="126.30" cy="22.22" r="6.67"/> 
            <circle cx="145.22" cy="68.64" r="6.67"/> 
            <circle cx="153.77" cy="83.50" r="6.67"/> 
            <circle cx="145.10" cy="34.12" r="6.67"/> 
            <circle cx="143.84" cy="17.30" r="6.67"/> 
            <circle cx="162.39" cy="98.55" r="6.67"/> 
            <circle cx="153.72" cy="49.28" r="6.67"/> 
            <circle cx="162.41" cy="64.67" r="6.67"/> 
            <circle cx="162.43" cy="31.03" r="6.67"/> 
            <circle cx="161.81" cy="14.33" r="6.67"/> 
            <circle cx="171.16" cy="80.39" r="6.67"/> 
            <circle cx="171.19" cy="46.96" r="6.67"/> 
            <circle cx="180.00" cy="13.33" r="6.67"/> 
            <circle cx="180.00" cy="30.00" r="6.67"/> 
            <circle cx="180.00" cy="63.33" r="6.67"/> 
            <circle cx="180.00" cy="96.67" r="6.67"/> 
            <circle cx="188.81" cy="46.96" r="6.67"/> 
            <circle cx="188.84" cy="80.39" r="6.67"/> 
            <circle cx="198.19" cy="14.33" r="6.67"/> 
            <circle cx="197.57" cy="31.03" r="6.67"/> 
            <circle cx="197.59" cy="64.67" r="6.67"/> 
            <circle cx="206.28" cy="49.28" r="6.67"/> 
            <circle cx="197.61" cy="98.55" r="6.67"/> 
            <circle cx="216.16" cy="17.30" r="6.67"/> 
            <circle cx="214.90" cy="34.12" r="6.67"/> 
            <circle cx="206.23" cy="83.50" r="6.67"/> 
            <circle cx="214.78" cy="68.64" r="6.67"/> 
            <circle cx="233.70" cy="22.22" r="6.67"/> 
            <circle cx="223.28" cy="53.89" r="6.67"/> 
            <circle cx="231.75" cy="39.21" r="6.67"/> 
            <circle cx="214.43" cy="104.11" r="6.67"/> 
            <circle cx="250.59" cy="29.02" r="6.67"/> 
            <circle cx="222.81" cy="89.63" r="6.67"/> 
            <circle cx="231.18" cy="75.16" r="6.67"/> 
            <circle cx="239.53" cy="60.70" r="6.67"/> 
            <circle cx="247.89" cy="46.24" r="6.67"/> 
            <circle cx="266.65" cy="37.63" r="6.67"/> 
            <circle cx="263.09" cy="55.11" r="6.67"/> 
            <circle cx="254.75" cy="69.59" r="6.67"/> 
            <circle cx="246.40" cy="84.07" r="6.67"/> 
            <circle cx="238.05" cy="98.58" r="6.67"/> 
            <circle cx="229.70" cy="113.11" r="6.67"/> 
            <circle cx="281.67" cy="47.93" r="6.67"/> 
            <circle cx="277.15" cy="65.71" r="6.67"/> 
            <circle cx="268.65" cy="80.41" r="6.67"/> 
            <circle cx="260.11" cy="95.18" r="6.67"/> 
            <circle cx="295.47" cy="59.82" r="6.67"/> 
            <circle cx="251.48" cy="110.07" r="6.67"/> 
            <circle cx="289.87" cy="77.87" r="6.67"/> 
            <circle cx="242.71" cy="125.12" r="6.67"/> 
            <circle cx="281.01" cy="92.97" r="6.67"/> 
            <circle cx="307.90" cy="73.13" r="6.67"/> 
            <circle cx="271.98" cy="108.23" r="6.67"/> 
            <circle cx="301.07" cy="91.45" r="6.67"/> 
            <circle cx="262.67" cy="123.74" r="6.67"/> 
            <circle cx="318.79" cy="87.73" r="6.67"/> 
            <circle cx="291.60" cy="107.05" r="6.67"/> 
            <circle cx="310.61" cy="106.24" r="6.67"/> 
            <circle cx="281.75" cy="122.92" r="6.67"/> 
            <circle cx="252.90" cy="139.62" r="6.67"/> 
            <circle cx="328.03" cy="103.43" r="6.67"/> 
            <circle cx="300.25" cy="122.40" r="6.67"/> 
            <circle cx="271.29" cy="139.17" r="6.67"/> 
            <circle cx="318.35" cy="122.05" r="6.67"/> 
            <circle cx="335.51" cy="120.04" r="6.67"/> 
            <circle cx="289.19" cy="138.92" r="6.67"/> 
            <circle cx="306.79" cy="138.76" r="6.67"/> 
            <circle cx="259.78" cy="155.94" r="6.67"/> 
            <circle cx="324.19" cy="138.65" r="6.67"/> 
            <circle cx="341.12" cy="137.37" r="6.67"/> 
            <circle cx="277.05" cy="155.88" r="6.67"/> 
            <circle cx="294.14" cy="155.85" r="6.67"/> 
            <circle cx="311.13" cy="155.84" r="6.67"/> 
            <circle cx="328.04" cy="155.83" r="6.67"/> 
            <circle cx="344.81" cy="155.20" r="6.67"/> 
            <circle cx="263.07" cy="173.35" r="6.67"/> 
            <circle cx="279.78" cy="173.34" r="6.67"/> 
            <circle cx="296.48" cy="173.34" r="6.67"/> 
            <circle cx="313.17" cy="173.34" r="6.67"/> 
            <circle cx="329.85" cy="173.34" r="6.67"/> 
            <circle cx="346.53" cy="173.34" r="6.67"/> 
        </g>
    </g>
</svg>
